<svg width="173" height="94" viewBox="0 0 173 94" fill="none" xmlns="http://www.w3.org/2000/svg">
<path d="M173 90.975C166.707 92.455 162.815 91.04 159.322 86.19L134.486 54.41L130.896 50.01L101.892 86.295C98.5776 90.66 95.1013 92.56 88.9166 91.015L126.058 44.905L91.4792 3.255C97.426 2.185 101.535 2.73 105.184 7.655L130.945 39.83L156.895 7.83C160.22 3.465 163.793 1.805 169.762 3.415L156.354 19.855L138.189 41.73C136.027 44.23 136.324 45.94 138.313 48.355L173 90.975ZM0.04325 44.135L3.08156 30.315C11.3531 2.965 45.2503 -8.4 68.6269 8.5C82.2885 18.44 85.6837 32.5 85.0079 48.25H8.00125C6.84431 76.6 28.9072 93.71 57.0359 84.98C66.9023 81.915 72.7141 74.77 75.6226 65.83C77.0985 61.35 79.5422 60.65 84.0942 61.93C81.7695 73.11 76.5255 82.45 65.4427 88.295C48.8833 97.045 25.2472 94.215 12.8128 82.055C5.40625 75 2.34631 66.06 0.973125 56.5C0.756875 54.92 0.324375 53.415 0 51.9C0.0288333 49.3133 0.04325 46.7267 0.04325 44.14V44.135ZM8.14181 42.235H77.7311C77.2769 21.735 63.4748 7.175 44.6124 7.05C23.9064 6.9 9.03925 21.115 8.14181 42.235V42.235Z" fill="white"/>
</svg>
