<svg width="512" height="154" viewBox="0 0 512 154" fill="none" xmlns="http://www.w3.org/2000/svg">
<path d="M383.828 97.6592C386.466 100.645 391.737 101.875 396.385 101.875C402.412 101.875 408.312 100.29 414.087 92.918C419.987 85.3608 424.007 73.7698 424.007 55.3291C424.007 37.5889 419.234 23.1854 409.442 14.7547C403.916 9.83701 396.763 7.90662 388.6 7.90662C386.214 7.90662 383.828 8.08133 382.447 8.95831C382.069 9.30944 381.316 10.7157 381.316 11.4197C381.066 14.58 381.066 38.6423 381.066 52.8694C381.066 67.4459 381.066 87.8204 381.316 90.2819C381.444 92.3887 382.195 96.0765 383.828 97.6575V97.6592ZM358.768 0C360.902 0 369.013 0.525841 372.781 0.525841C379.812 0.525841 384.707 0 397.89 0C408.94 0 418.233 4.21536 424.887 12.295C432.924 22.132 437.192 35.8315 437.192 52.5165C437.192 76.2277 429.534 89.9273 421.874 97.6557C414.214 105.734 404.295 110.3 390.108 110.3C382.574 110.3 369.639 109.951 358.842 109.778H358.694C358.193 108.37 359.618 102.893 360.502 102.75C363.421 102.283 364.211 102.124 365.567 101.331C367.847 100.005 368.385 98.3597 368.638 92.5616C369.013 81.6747 368.888 68.6757 368.888 53.9211C368.888 43.3835 369.013 22.8325 368.762 16.3339C368.385 10.8904 366.756 9.48588 363.489 8.42901C361.857 7.9049 359.598 7.37732 356.459 6.84975C356.206 5.79634 358.141 1.05341 358.768 0ZM470.439 8.6089C469.938 8.78533 469.309 10.5427 469.309 11.4197C469.187 17.7419 469.061 34.2522 469.061 45.6685C469.061 46.0179 469.435 46.5455 469.688 46.5455C471.321 46.7236 475.336 46.8983 478.727 46.8983C483.498 46.8983 486.263 46.0179 487.767 44.9645C491.785 42.1554 493.668 36.0079 493.668 29.3346C493.668 14.0541 486.135 8.25603 474.962 8.25603C474.209 8.25603 472.073 8.25603 470.439 8.6089ZM498.941 78.8656C498.941 63.4087 490.908 54.6268 476.215 54.6268C475.589 54.6268 470.942 54.4504 469.812 54.8032C469.435 54.9762 469.061 55.3291 469.061 55.6802C469.061 66.7471 468.933 84.4855 469.309 91.5082C469.562 94.4955 471.07 98.7126 472.952 99.9407C474.962 101.523 479.479 101.875 482.619 101.875C491.283 101.875 498.941 95.0231 498.941 78.8656ZM447.764 0.00172879C448.894 0.00172879 452.236 0.52757 460.772 0.52757C468.809 0.52757 475.336 0.178164 483.121 0.178164C492.789 0.178164 506.097 5.09581 506.097 25.4704C506.097 35.4804 501.078 43.5617 494.548 47.4259C494.171 47.6006 494.171 47.9518 494.548 48.1282C503.84 51.4631 512 59.5444 512 74.9996C512 90.1037 505.346 99.5896 495.678 105.562C489.776 109.248 482.495 110.478 475.084 110.478C469.435 110.478 454.295 109.601 445.881 109.779C445.002 109.248 446.687 103.629 447.438 102.752C449.45 102.577 450.998 102.371 453.134 101.492C456.145 100.439 456.503 99.0637 456.88 92.7398C457.133 87.2963 457.133 67.7987 457.133 53.9228C457.133 34.9545 457.256 22.1337 457.133 15.8098C457.005 10.8921 455.751 9.30944 453.365 8.43247C451.483 7.90663 448.344 7.37732 445.833 6.85148C445.202 5.97278 447.137 0.704002 447.764 0.00172879Z" fill="white"/>
<path d="M1.15765 110.27C0.949135 109.798 0.729718 108.402 0.775785 106.721C0.810941 105.441 0.987929 104.632 1.15644 104.354C3.50705 103.824 4.61993 103.466 5.94132 102.963C8.14404 102.183 8.97444 100.485 9.10537 96.4637C9.46663 86.9931 9.48724 69.2331 9.3551 56.7428L9.35631 56.3744C9.36723 55.034 9.38178 53.2025 8.20223 51.9106C6.47351 50.2849 4.31807 48.9411 1.59165 47.7754C0.547872 47.3344 -0.0291706 46.5509 0.00113645 45.6361C0.0338681 44.7557 0.688494 43.6368 2.04989 43.2632C5.65885 42.7323 15.1219 39.5172 18.8352 37.0734C19.0546 37.4539 19.4025 38.2806 19.3346 39.5984C19.3067 40.1519 19.274 40.7295 19.2388 41.3314C19.1334 43.0955 19.0146 45.0964 19.0146 47.0905C19.0146 47.6786 19.4607 48.2355 19.9347 48.2355C20.0549 48.235 20.1739 48.2004 20.2846 48.1336C20.3954 48.0667 20.4957 47.9691 20.5796 47.8463C27.6569 39.9426 33.9863 37.1236 37.2449 37.1236C42.5995 37.1236 46.7661 40.7693 49.986 48.2666C50.1751 48.6644 50.4285 48.8719 50.7133 48.8719C50.8466 48.8708 50.9777 48.8233 51.0951 48.7335C51.2126 48.6436 51.3129 48.5142 51.3874 48.3565C57.8949 41.3227 64.3442 37.1236 68.6551 37.1236C78.8601 37.1236 84.9543 48.0089 84.9543 66.2341C84.9543 71.4727 84.9179 78.1105 84.8852 84.3072C84.8536 89.7447 84.827 94.8414 84.827 98.3679C84.827 99.2239 85.6295 101.595 86.8394 102.069C88.3305 103.107 90.4883 103.634 93.2087 104.303L93.3129 104.328C93.5215 105.372 93.0875 109.437 92.6729 110.268C91.9976 110.261 91.0617 110.191 89.8967 110.108C87.7777 109.952 84.8743 109.744 81.4932 109.744C74.7141 109.744 71.1706 109.935 67.7871 110.246C67.5325 109.039 67.4428 105.149 67.7544 104.34C69.7268 103.812 70.7027 103.458 71.8883 102.956C74.0461 101.943 74.6668 100.549 74.7929 96.4637C74.8426 93.5582 75.2342 67.9965 74.5395 61.9277C73.9007 55.6394 70.5729 48.277 63.2968 48.277C60.5983 48.277 56.2377 49.875 52.0808 54.3682C51.8226 54.7245 51.6735 55.4197 51.6735 55.8746L51.6807 55.9922C52.1705 59.2678 52.1705 63.0882 52.1705 68.8699C52.1705 72.1645 52.156 75.6598 52.1426 79.1309C52.1147 86.1785 52.0881 92.8318 52.1705 97.8594C52.1705 101.287 53.6252 102.104 54.7951 102.764C55.4291 102.965 55.9346 103.138 56.439 103.309C57.4197 103.646 58.4319 103.994 59.9327 104.336C60.1388 105.011 60.1558 107.029 59.8746 108.755C59.717 109.708 59.5363 110.128 59.4405 110.265C55.6703 110.082 51.802 109.919 46.2206 109.919C44.5283 109.919 41.7655 110.023 39.3288 110.116C37.3528 110.191 35.4822 110.265 34.419 110.272C34.2651 109.924 34.0493 108.812 34.0493 107.211C34.0493 105.722 34.2408 104.672 34.4372 104.348C34.9621 104.21 35.4616 104.084 35.9368 103.963C37.2461 103.631 38.3771 103.345 39.4621 102.965C41.3097 102.162 42.0031 100.699 42.1376 97.3509C42.4977 89.5354 42.7802 67.0228 42.0043 61.3847C40.6829 52.336 37.0679 47.7512 31.2635 47.7512C27.8582 47.7512 23.5618 50.086 20.0499 53.839C19.4595 54.4564 19.0146 56.0147 19.0146 57.4536C19.0146 60.1343 19.0085 63.3269 19.0012 66.7495C18.977 78.0569 18.9491 92.1296 19.1431 98.2208C19.2607 100.092 19.7177 102.32 22.1956 103.143C22.7351 103.357 23.6722 103.582 24.7572 103.836C25.3815 103.985 26.064 104.148 26.7659 104.326C27.0181 105.294 26.8629 109.089 26.4313 110.27C25.3487 110.261 24.0164 110.172 22.4865 110.076C20.1517 109.929 17.2471 109.744 13.9363 109.744C10.0413 109.744 7.32939 109.929 5.1497 110.076C3.6889 110.175 2.42206 110.263 1.15765 110.27ZM124.813 44.5897C122.545 44.5897 120.426 45.4372 118.85 46.9764C114.522 50.7276 112.319 58.218 112.319 69.2175C112.319 89.8225 119.559 104.21 129.923 104.21C132.981 104.21 135.474 102.956 137.546 100.379C140.73 96.6747 142.419 89.1134 142.419 78.5238C142.419 58.2267 135.343 44.5914 124.813 44.5914V44.5897ZM126.808 111.851C108.082 111.851 101.411 92.2766 101.411 73.9615C101.411 61.1668 105.082 51.1617 112.326 44.2283C117.476 39.7178 123.624 37.1236 129.177 37.1236C143.469 37.1236 153.452 51.7653 153.452 72.7335C153.452 86.9879 149.462 98.2399 141.917 105.272C138.298 108.435 132.02 111.851 126.808 111.851ZM318.737 44.5897C316.466 44.5897 314.346 45.4372 312.772 46.9764C308.445 50.7276 306.242 58.2146 306.242 69.2175C306.242 89.8225 313.479 104.21 323.845 104.21C326.904 104.21 329.396 102.956 331.468 100.378C334.652 96.6764 336.342 89.1151 336.342 78.5273C336.342 58.2284 329.266 44.5897 318.737 44.5897ZM320.731 111.851C302.004 111.851 295.331 92.2784 295.331 73.9632C295.331 61.165 299.006 51.16 306.25 44.2265C311.399 39.716 317.546 37.1236 323.099 37.1236C337.391 37.1236 347.375 51.7688 347.375 72.7318C347.375 86.9896 343.385 98.2416 335.84 105.268C332.221 108.433 325.944 111.851 320.731 111.851ZM256.07 43.8893C250.297 43.8893 246.567 50.3852 246.567 60.4404C246.567 70.5855 249.775 82.4324 258.814 82.4324C260.365 82.4324 263.18 81.4501 264.575 79.2589C266.674 76.509 268.045 70.8276 268.045 64.8281C268.045 51.7152 263.568 43.8893 256.07 43.8893ZM255.325 113.253C253.156 113.253 251.579 114.153 250.636 114.907C246.067 119.082 243.949 123.25 243.949 128.051C243.949 132.575 245.182 136.171 247.83 139.369C251.039 143.243 255.365 145.128 261.056 145.128C272.249 145.128 277.268 136.55 277.268 128.049C277.268 122.134 275.184 118.169 270.899 115.926C267.595 114.206 262.078 113.253 255.325 113.253ZM256.07 154C249.348 154 244.503 151.978 240.365 147.442C236.34 143.014 234.537 136.448 234.537 131.911C234.537 130.607 234.754 127.235 236.742 124.013C237.914 122.115 240.627 118.565 246.895 112.423C246.993 112.368 247.077 112.271 247.135 112.145C247.194 112.019 247.224 111.87 247.221 111.719C247.225 111.551 247.188 111.387 247.116 111.253C247.044 111.12 246.943 111.026 246.828 110.988C241.662 108.169 240.105 103.544 239.634 101.035C239.621 100.905 239.604 100.776 239.583 100.647C239.434 99.6632 239.296 98.7328 240.229 97.7764C240.953 97.0413 242.115 96.0607 243.345 95.0265C245.161 93.4976 247.218 91.7664 248.358 90.3742C248.446 90.2464 248.511 90.0899 248.548 89.9183C248.585 89.7466 248.592 89.5648 248.569 89.3884C248.551 89.2116 248.504 89.0434 248.431 88.898C248.358 88.7527 248.262 88.6343 248.151 88.5531C240.506 84.8917 236.657 76.7995 236.657 64.477C236.657 56.5214 239.232 49.3302 243.718 44.7436C246.793 41.283 254.51 37.1184 259.51 37.1184L259.801 37.1236C264.945 37.2965 267.844 38.8323 271.857 40.9492C274.036 42.0993 276.098 42.5662 278.984 42.5662C283.241 42.5662 285.101 40.643 286.696 38.4345C286.787 38.7078 287.005 39.576 287.102 41.5752C287.204 43.6143 286.814 46.634 285.72 48.7906C284.848 50.5097 282.831 51.755 280.926 51.755C280.735 51.755 280.548 51.7428 280.368 51.7152C278.407 51.4419 277.485 51.0338 277.476 51.0286L276.996 51.2672C276.844 51.582 276.942 51.9331 277.067 52.3758C277.097 52.4831 277.128 52.5834 277.137 52.6508C277.388 54.0724 277.832 58.2232 277.832 59.3854C277.832 72.3081 274.255 77.9444 270.387 82.1125C266.697 86.0816 262.384 88.4666 257.523 89.1982H257.519C257.42 89.1982 256.959 89.257 256.03 89.3746C255.431 89.4524 254.686 89.5475 254.576 89.5475L254.466 89.5683C253.622 89.909 251.43 91.3946 251.43 94.1583C251.43 96.4585 252.424 99.3087 257.163 99.8172C258.123 99.9209 259.153 100.023 260.23 100.128C266.486 100.749 274.299 101.522 277.978 103.3C283.035 105.926 286.183 112.382 286.183 120.147C286.183 131.745 280.396 142.651 270.705 149.313C266.005 152.468 261.231 154 256.07 154ZM225.323 104.087C222.582 103.56 220.587 103.032 218.219 101.452C217.845 101.1 217.345 99.5197 217.345 98.9922C217.095 93.5478 217.095 77.7438 217.095 67.3842C217.095 58.953 216.099 51.5768 213.607 46.3071C210.616 40.3369 206.379 36.8261 200.893 36.8261C196.033 36.8261 189.55 41.5666 184.192 48.066C184.067 48.2406 183.244 49.3544 183.262 47.625C183.28 45.8972 183.468 42.3812 183.579 40.1692C183.693 37.9554 182.764 36.9126 182.764 36.9126C179.273 39.3719 169.444 42.7011 165.816 43.2355C163.162 43.9636 162.494 47.5973 165.319 48.8529C165.319 48.8598 165.346 48.8667 165.361 48.8736C168.317 50.1413 170.309 51.4955 171.795 52.8929C172.917 54.1226 172.793 55.8798 172.793 57.2858C172.916 69.0497 172.916 87.1401 172.542 96.9722C172.418 100.838 171.669 102.24 169.675 102.944L169.856 102.858C168.338 103.398 166.799 103.808 165.246 104.086C164.622 104.962 164.622 110.056 165.244 111.111C166.492 111.111 172.85 110.581 178.084 110.581C185.312 110.581 189.052 111.111 190.922 111.111C191.669 109.879 191.919 105.137 191.421 104.086C189.3 103.911 187.804 103.558 186.31 103.031C184.315 102.328 183.816 100.924 183.693 97.7625C183.444 89.5095 183.444 71.9501 183.444 60.0063C183.444 56.6684 184.067 55.0894 184.815 54.2108C187.306 51.0493 191.421 48.9445 195.036 48.9445C198.525 48.9445 200.893 50.5236 202.639 52.6283C205.007 55.4405 205.878 59.4788 206.128 62.4656C206.627 69.1414 206.501 82.4843 206.501 94.0753C206.501 100.398 206.128 101.979 204.508 102.681C203.76 103.209 201.766 103.734 199.397 104.086C198.651 105.137 198.899 110.056 199.397 111.111C202.639 111.111 206.379 110.581 211.861 110.581C218.717 110.581 223.079 111.111 224.825 111.111C225.572 109.879 225.82 105.313 225.323 104.086" fill="white"/>
</svg>
